<?xml version="1.0" standalone="no"?>
<!DOCTYPE svg PUBLIC "-//W3C//DTD SVG 1.1//EN" "http://www.w3.org/Graphics/SVG/1.1/DTD/svg11.dtd" >
<svg xmlns="http://www.w3.org/2000/svg">
<metadata>Generated by IcoMoon</metadata>
<defs>
<font id="Webdesign-Pack-3" horiz-adv-x="1024">
<font-face units-per-em="1024" ascent="960" descent="-64" />
<missing-glyph horiz-adv-x="1024" />
<glyph unicode="&#x20;" horiz-adv-x="512" d="" />
<glyph unicode="&#xe900;" glyph-name="arrows-1" d="M994.723 418.773h-965.446c-16.155 0-29.277 13.056-29.277 29.244 0 16.155 13.122 29.277 29.277 29.277h965.446c16.155 0 29.277-13.122 29.277-29.277 0-16.188-13.122-29.244-29.277-29.244zM528.073-64c-7.319 0-14.671 2.736-20.342 8.242l-498.796 482.773c-5.704 5.506-8.935 13.056-8.935 21.002 0 7.913 3.231 15.529 8.935 21.035l498.796 482.707c11.605 11.243 30.134 10.946 41.377-0.659 11.21-11.638 10.913-30.167-0.692-41.377l-477.102-461.705 477.102-461.705c11.605-11.243 11.902-29.738 0.692-41.377-5.77-5.935-13.386-8.935-21.035-8.935z" />
<glyph unicode="&#xe901;" glyph-name="arrows-2" d="M753.378 121.855h-241.378c-16.156 0-29.245 13.089-29.245 29.278 0 16.156 13.122 29.278 29.245 29.278h241.378c116.947 0 212.1 95.153 212.1 212.133 0 116.947-95.153 212.133-212.1 212.133h-653.477l61.061-61.061c5.704-5.737 8.572-13.188 8.572-20.706 0-7.484-2.868-14.969-8.572-20.673-11.408-11.441-29.937-11.441-41.345 0l-111.111 110.979c0 0 0 0.033-0.033 0.066 0 0-0.033 0-0.066 0.033 0 0-0.033 0.033-0.066 0.066 0.033 0-0.033 0.033-0.033 0.033-0.033 0.033-0.033 0.033-0.033 0.033-0.033 0-0.066 0.033-0.066 0.066v0c-3.594 3.693-6.067 8.21-7.319 13.023v0.033c-0.297 1.154-0.528 2.308-0.692 3.528v0 0.099c-0.626 4.946 0 10.089 1.978 14.903 1.583 3.66 3.792 6.924 6.561 9.627l110.88 110.88c11.441 11.408 29.937 11.408 41.345 0 11.441-11.441 11.441-29.937 0-41.378l-61.061-61.094h653.477c149.225 0 270.622-121.431 270.622-270.622 0-149.258-121.398-270.655-270.622-270.655z" />
<glyph unicode="&#xe902;" glyph-name="arrows-3" d="M1024 466.81h-951.958l289.411 289.411-26.612 26.612-334.84-334.825 334.84-334.84 26.612 26.57-289.432 289.468h951.979z" />
<glyph unicode="&#xe903;" glyph-name="arrows" d="M808.896 891.382l-66.66 68.618-527.13-511.983 527.13-512.017 66.66 68.631-456.425 443.385z" />
<glyph unicode="&#xe904;" glyph-name="black" d="M139.637 182.406l131.119-152.435c16.757-19.503 44.405-19.317 61.301 0l133.399 152.435h511.861c25.786 0 46.684 20.898 46.684 46.871v604.393c0 25.926-20.433 46.918-46.639 46.918h-930.724c-25.741 0-46.639-20.9-46.639-46.918v-604.393c0-25.879 20.619-46.871 46.5-46.871h93.137zM186.182 684.072c0 5.679 4.608 10.334 10.24 10.334h584.61c5.726 0 10.24-4.608 10.24-10.334v-25.879c0-5.679-4.608-10.334-10.24-10.334h-584.61c-5.724 0-10.24 4.608-10.24 10.334v25.879zM186.182 544.437c0 5.679 4.608 10.334 10.24 10.334h584.61c5.726 0 10.24-4.608 10.24-10.334v-25.879c0-5.679-4.608-10.334-10.24-10.334h-584.61c-5.724 0-10.24 4.608-10.24 10.334v25.879zM186.182 404.8c0 5.679 4.375 10.334 9.728 10.334h399.452c5.306 0 9.728-4.608 9.728-10.334v-25.879c0-5.679-4.375-10.334-9.728-10.334h-399.452c-5.306 0-9.728 4.608-9.728 10.334v25.879z" />
<glyph unicode="&#xe905;" glyph-name="business" d="M106.211 665.298h811.536c58.664 0 106.253 52.469 106.253 117.327 0 64.903-47.59 117.46-106.253 117.46h-811.536c-58.533-0.002-106.211-52.556-106.211-117.46 0-64.861 47.677-117.327 106.211-117.327zM145.583 854.867c39.9 0 72.286-32.342 72.286-72.241s-32.342-72.241-72.286-72.241c-39.857 0-72.241 32.342-72.241 72.241s32.385 72.241 72.241 72.241zM917.747 565.372h-811.536c-58.533 0-106.211-52.601-106.211-117.46s47.677-117.327 106.211-117.327h811.536c58.664 0 106.253 52.469 106.253 117.327s-47.59 117.46-106.253 117.46zM659.978 375.671c-39.9 0-72.241 32.342-72.241 72.241s32.299 72.241 72.241 72.241 72.286-32.342 72.286-72.241c-0.045-39.9-32.387-72.241-72.286-72.241zM917.747 230.704h-811.536c-58.533 0-106.211-52.601-106.211-117.46 0-64.816 47.677-117.415 106.211-117.327h811.536c58.664 0 106.253 52.512 106.253 117.327s-47.59 117.46-106.253 117.46zM437.978 41.001c-39.9 0-72.241 32.342-72.241 72.286s32.299 72.241 72.241 72.241 72.241-32.299 72.241-72.241-32.342-72.286-72.241-72.286z" />
<glyph unicode="&#xe906;" glyph-name="circle-1" d="M135.262 583.241c-74.584 0-135.262-60.677-135.262-135.241 0-74.579 60.677-135.241 135.262-135.241 74.563 0 135.241 60.657 135.241 135.241-0.005 74.563-60.683 135.241-135.241 135.241zM135.262 349.612c-54.239 0-98.388 44.149-98.388 98.388 0 54.218 44.149 98.352 98.388 98.352 54.218 0 98.352-44.129 98.352-98.352-0.021-54.239-44.134-98.388-98.352-98.388zM518.626 583.241c-74.579 0-135.262-60.677-135.262-135.241 0-74.579 60.677-135.241 135.262-135.241s135.262 60.657 135.262 135.241c0 74.563-60.677 135.241-135.262 135.241zM518.626 349.612c-54.218 0-98.352 44.149-98.352 98.388 0 54.218 44.149 98.352 98.352 98.352 54.239 0 98.367-44.129 98.367-98.352 0-54.239-44.129-98.388-98.367-98.388zM888.759 583.241c-74.6 0-135.277-60.677-135.277-135.241 0-74.579 60.677-135.241 135.277-135.241 74.563 0 135.241 60.657 135.241 135.241 0 74.563-60.677 135.241-135.241 135.241zM888.759 349.612c-54.239 0-98.367 44.149-98.367 98.388 0 54.218 44.129 98.352 98.367 98.352s98.331-44.129 98.331-98.352c0-54.239-44.092-98.388-98.331-98.388z" />
<glyph unicode="&#xe907;" glyph-name="circle-2" d="M139.391 587.347c-76.853 0-139.391-62.516-139.391-139.369 0-11.937 9.688-21.624 21.624-21.624s21.624 9.688 21.624 21.624c0 53.023 43.119 96.142 96.142 96.142s96.142-43.119 96.142-96.142c0-53.023-43.119-96.142-96.142-96.142-25.69 0-49.823 9.99-67.965 28.155-8.455 8.455-22.143 8.434-30.598 0-8.455-8.455-8.455-22.143 0-30.598 26.317-26.338 61.327-40.827 98.564-40.827 76.853 0 139.391 62.538 139.391 139.391s-62.538 139.391-139.391 139.391zM884.609 587.347c-76.853 0-139.369-62.538-139.369-139.391s62.538-139.391 139.369-139.391c37.237 0 72.247 14.488 98.585 40.827 8.455 8.455 8.455 22.143 0 30.598s-22.143 8.434-30.577 0c-18.164-18.164-42.319-28.177-68.009-28.177-53.001 0-96.12 43.119-96.12 96.142s43.119 96.142 96.12 96.142c53.023 0 96.142-43.119 96.142-96.142 0-11.937 9.666-21.624 21.624-21.624s21.624 9.688 21.624 21.624c0 76.875-62.516 139.391-139.391 139.391zM577.76 548.056c-8.261-8.628-7.936-22.316 0.67-30.577 18.554-17.754 29.106-41.67 29.669-67.338 0.584-25.668-8.866-50.039-26.598-68.592s-41.649-29.106-67.317-29.69c-53.045-1.124-97.072 40.957-98.283 93.936-1.189 53.001 40.957 97.093 93.958 98.283 11.937 0.259 21.408 10.163 21.127 22.1-0.281 11.958-10.358 22.165-22.1 21.127-76.853-1.73-137.942-65.652-136.212-142.483 0.822-37.216 16.132-71.901 43.032-97.612 26.122-24.976 60.202-38.621 96.228-38.621 1.081 0 2.162 0 3.222 0.043 37.237 0.843 71.879 16.11 97.634 43.032 25.711 26.922 39.421 62.235 38.578 99.45-0.822 37.216-16.11 71.879-43.011 97.612-8.693 8.282-22.338 7.958-30.598-0.67z" />
<glyph unicode="&#xe908;" glyph-name="circle" d="M135.259 583.242c-74.594 0-135.259-60.666-135.259-135.242 0-74.591 60.666-135.242 135.259-135.242 74.549 0 135.242 60.648 135.242 135.242 0 74.576-60.693 135.242-135.242 135.242zM518.634 583.242c-74.585 0-135.259-60.666-135.259-135.242 0-74.591 60.675-135.242 135.259-135.242 74.579 0 135.262 60.648 135.262 135.242 0 74.576-60.684 135.242-135.262 135.242zM888.764 583.242c-74.567 0-135.25-60.666-135.25-135.242 0-74.591 60.684-135.242 135.25-135.242 74.549 0 135.236 60.648 135.236 135.242 0 74.576-60.687 135.242-135.236 135.242z" />
<glyph unicode="&#xe909;" glyph-name="commerce-1" d="M913.851 270.694c8.196 0 17.097 6.049 18.883 14.386 30.244 140.111 60.504 280.223 90.765 420.334 2.664 12.317-5.594 24.791-18.883 24.791-243.005 0-485.995 0-729 0-29.696 0-59.408 0-89.103 0-5.767 27.267-11.534 54.518-17.285 81.785-6.613 31.247-13.21 62.495-19.823 93.758-1.771 8.337-10.672 14.37-18.899 14.37-37.202 0-74.389 0-111.591 0-25.214 0-25.245-39.177 0-39.177 31.905 0 63.827 0 95.748 0 23.224-109.836 46.432-219.671 69.656-329.523 0.078-2.586 0.627-5.124 1.583-7.491 21.469-101.53 42.922-203.061 64.391-304.591 5.281-24.979 10.562-49.958 15.843-74.937-37.249-13.759-64.579-49.895-64.579-91.329 0-51.353 41.856-94.902 93.084-97.080 54.644-2.335 95.466 39.427 100.966 91.25 0.423 1.786 0.69 3.683 0.58 5.829 0.11 2.131-0.141 3.996-0.564 5.767-2.053 19.432-9.058 37.484-19.98 52.371 143.277 0 286.538 0 429.815 0-12.411-16.345-19.949-36.497-19.949-58.138 0-51.353 41.856-94.902 93.084-97.080 54.644-2.335 95.466 39.427 100.966 91.25 0.423 1.786 0.69 3.683 0.58 5.829 0.11 2.131-0.141 3.996-0.564 5.767-5.312 50.177-43.737 91.548-96.751 91.548-192.655 0-385.31 0-577.981 0-7.067 33.441-14.135 66.867-21.202 100.308 210.081 0 420.146 0 630.212 0zM228.29 532.582c43.972 0 87.944 0 131.931 0 12.881-74.232 25.763-148.48 38.644-222.712-41.167 0-82.334 0-123.485 0-15.702 74.232-31.404 148.464-47.090 222.712zM605.703 309.871c0 74.232 0 148.48 0 222.712 58.937 0 117.859 0 176.797 0-12.881-74.232-25.763-148.48-38.644-222.712-46.056 0-92.112 0-138.153 0zM566.526 309.871c-42.687 0-85.389 0-128.076 0-12.881 74.232-25.763 148.48-38.644 222.712 55.568 0 111.152 0 166.72 0 0-74.248 0-148.48 0-222.712zM898.070 309.871c-38.205 0-76.426 0-114.631 0 12.881 74.232 25.763 148.48 38.644 222.712 17.457 0 34.914 0 52.387 0 23.898 0 47.796 0 71.693 0-16.031-74.248-32.062-148.48-48.093-222.712zM899.653 691.029c26.907 0 53.813 0 80.72 0-8.588-39.756-17.175-79.513-25.747-119.269-218.496 0-436.992 0-655.488 0-26.374 0-52.747 0-79.121 0-8.399 39.756-16.815 79.513-25.214 119.269 234.935 0 469.901 0 704.851 0zM240.749 73.056c0 75.157 112.265 74.498 116.276 0-4.012-74.467-116.276-75.125-116.276 0zM940.977 73.056c-4.012-74.467-116.276-75.125-116.276 0-0.016 75.157 112.265 74.498 116.276 0z" />
<glyph unicode="&#xe90a;" glyph-name="commerce" d="M776.16 804.321c2.297 8.141 13.252 16.428 21.708 16.428h181.705c16.345 0 29.597 13.248 29.597 29.597s-13.252 29.597-29.597 29.597h-181.705c-34.688 0-69.245-26.148-78.672-59.529l-49.087-173.726c-5.612 1.563-11.523 2.466-17.671 2.466h-587.067c-18.685 0-36.424-7.75-48.665-21.262s-18.212-31.925-16.373-50.512l27.379-277.532c3.65-36.988 35.623-65.962 72.792-65.962h455.654c34.834 0 69.241 26.341 78.333 59.963l57.086 211.101 84.584 299.37zM577.344 309.299c-2.17-8.035-12.869-16.219-21.191-16.219h-455.654c-6.499 0-13.244 6.113-13.883 12.581l-27.383 277.532c-0.205 2.052 0.257 3.765 1.33 4.949 1.077 1.188 2.735 1.815 4.803 1.815h587.071c0.288 0 0.541-0.012 0.762-0.028-0.039-0.221-0.099-0.466-0.174-0.742l-75.681-279.888zM186.894 200.178c-50.765 0-92.062-41.297-92.062-92.058s41.297-92.058 92.062-92.058c50.761 0 92.058 41.297 92.058 92.058s-41.297 92.058-92.058 92.058zM186.894 75.255c-18.125 0-32.868 14.743-32.868 32.864s14.743 32.864 32.868 32.864c18.121 0 32.864-14.743 32.864-32.864s-14.743-32.864-32.864-32.864zM478.79 200.178c-50.761 0-92.058-41.297-92.058-92.058s41.297-92.058 92.058-92.058 92.058 41.297 92.058 92.058c0 50.761-41.294 92.058-92.058 92.058zM478.79 75.255c-18.121 0-32.864 14.743-32.864 32.864s14.743 32.864 32.864 32.864 32.864-14.743 32.864-32.864c0-18.121-14.739-32.864-32.864-32.864zM1004.269 639.284h-213.662c-10.896 0-19.731-8.832-19.731-19.731s8.836-19.731 19.731-19.731h213.662c10.896 0 19.731 8.832 19.731 19.731s-8.836 19.731-19.731 19.731zM945.032 547.44h-189.961c-10.896 0-19.731-8.832-19.731-19.731s8.836-19.731 19.731-19.731h189.961c10.896 0 19.731 8.832 19.731 19.731s-8.836 19.731-19.731 19.731zM893.695 455.591h-162.309c-10.896 0-19.731-8.832-19.731-19.731s8.836-19.731 19.731-19.731h162.309c10.896 0 19.731 8.832 19.731 19.731s-8.836 19.731-19.731 19.731z" />
<glyph unicode="&#xe90b;" glyph-name="cross-1" d="M967.112 504.888h-398.224v398.224c0 31.403-25.6 56.888-56.888 56.888-31.403 0-56.888-25.485-56.888-56.888v-398.224h-398.224c-31.403 0-56.888-25.485-56.888-56.888 0-31.288 25.485-56.888 56.888-56.888h398.224v-398.224c0-31.288 25.485-56.888 56.888-56.888 31.288 0 56.888 25.6 56.888 56.888v398.224h398.224c31.288 0 56.888 25.6 56.888 56.888 0 31.403-25.6 56.888-56.888 56.888z" />
<glyph unicode="&#xe90c;" glyph-name="cross-2" d="M1024 468.617h-491.38v491.383h-41.258v-491.383h-491.362v-41.248h491.362v-491.369h41.258v491.369h491.38z" />
<glyph unicode="&#xe90d;" glyph-name="cross" d="M36.441 411.559c-20.158 0-36.181 16.543-36.181 36.702s16.022 36.181 36.181 36.181h438.825v438.857c0.033 20.158 16.576 36.702 36.734 36.702s36.181-16.543 36.181-36.702v-438.857h438.825c20.158 0 36.702-16.022 36.702-36.181s-16.543-36.702-36.702-36.702h-438.825v-438.857c0-20.158-16.022-36.702-36.181-36.702s-36.702 16.543-36.702 36.702v438.857h-438.857z" />
<glyph unicode="&#xe90e;" glyph-name="food-1" d="M966.928 374.958c2.568 6.151 3.992 12.892 3.992 19.962 0 28.659-23.315 51.974-51.974 51.974h-1.106v37.598h18.799c18.903 0 34.281 15.378 34.281 34.281v25.089c0 29.851-10.417 58.505-30.123 82.862-80.878 99.972-277.822 120.956-428.797 120.956s-347.919-20.984-428.797-120.954c-19.706-24.359-30.123-53.014-30.123-82.864v-25.089c0-18.903 15.378-34.281 34.281-34.281h18.799v-37.598h-1.106c-28.659 0-51.974-23.315-51.974-51.974 0-7.071 1.424-13.812 3.992-19.962-32.421-5.947-57.072-34.391-57.072-68.504 0-38.414 31.253-69.667 69.667-69.667h1.106v-18.799c0-38.414 31.253-69.667 69.667-69.667h743.119c38.414 0 69.667 31.253 69.667 69.667v18.799h1.106c38.414 0 69.667 31.253 69.667 69.667 0 34.113-24.651 62.557-57.072 68.504zM819.658 376.121l-37.598 37.598h59.242l37.598-37.598h-59.242zM607.338 376.121l-37.598 37.598h59.242l37.598-37.598h-59.242zM501.178 376.121l-37.598 37.598h59.242l37.598-37.598h-59.242zM288.859 376.121l-37.598 37.598h59.242l37.598-37.598h-59.242zM182.699 376.121l-37.598 37.598h59.242l37.598-37.598h-59.242zM395.019 376.121l-37.598 37.598h59.242l37.598-37.598h-59.242zM713.498 376.121l-37.598 37.598h59.242l37.598-37.598h-59.242zM937.745 394.92c0-8.3-5.414-15.351-12.892-17.835l-36.634 36.634h30.727c10.366 0 18.799-8.433 18.799-18.799zM86.255 518.773v25.089c0 22.172 7.862 43.61 22.738 61.997 13.259 16.388 31.257 31.111 53.766 44.067l54.418-54.418c3.238-3.238 7.484-4.857 11.728-4.857s8.491 1.619 11.728 4.857c6.478 6.48 6.478 16.981 0 23.459l-46.567 46.567c9.988 4.33 20.577 8.415 31.835 12.215 8.081 2.729 16.481 5.297 25.16 7.725l89.966-89.966c3.238-3.238 7.484-4.857 11.728-4.857s8.491 1.619 11.728 4.857c6.478 6.48 6.478 16.981 0 23.459l-75.71 75.71c20.635 4.366 42.643 8.015 65.992 10.943l110.112-110.114c3.238-3.238 7.484-4.857 11.728-4.857s8.491 1.619 11.728 4.857c6.478 6.48 6.478 16.981 0 23.459l-91.067 91.067c23.205 1.937 47.555 3.245 73.014 3.921l118.448-118.45c3.238-3.238 7.484-4.857 11.728-4.857s8.491 1.619 11.728 4.857c6.478 6.48 6.478 16.981 0 23.459l-95.52 95.52c27.602-0.077 54.029-0.836 79.217-2.285l116.696-116.696c3.238-3.238 7.484-4.857 11.728-4.857s8.491 1.619 11.728 4.857c6.478 6.48 6.478 16.981 0 23.459l-89.199 89.199c32.859-3.362 63.269-8.057 91.134-14.073 0.356-0.438 0.739-0.863 1.148-1.272l97.313-97.313c3.238-3.238 7.484-4.857 11.728-4.857s8.491 1.619 11.728 4.857c6.478 6.48 6.478 16.981 0 23.459l-57.149 57.149c51.231-17.919 89.011-41.531 112.255-70.26v-0.002c14.876-18.386 22.738-39.823 22.738-61.995v-25.080c0-0.608-0.495-1.106-1.106-1.106h-849.279c-0.599 0-1.095 0.498-1.095 1.106zM139.335 484.492h745.33v-37.598h-745.33v37.598zM99.147 412.755l36.634-36.634h-30.727c-10.366 0-18.799 8.433-18.799 18.799 0 8.3 5.414 15.351 12.892 17.835zM920.052 217.987c0-20.122-16.371-36.492-36.492-36.492h-743.119c-20.122 0-36.492 16.371-36.492 36.492v18.799h816.104v-18.799zM954.333 269.961h-153.005c6.558 10.62 10.353 23.121 10.353 36.492 0 9.163-7.427 16.587-16.587 16.587s-16.587-7.425-16.587-16.587c0-20.122-16.371-36.492-36.492-36.492h-400.711c6.558 10.62 10.353 23.121 10.353 36.492 0 9.163-7.427 16.587-16.587 16.587s-16.587-7.425-16.587-16.587c0-20.122-16.371-36.492-36.492-36.492h-212.32c-20.122 0-36.492 16.369-36.492 36.492s16.371 36.492 36.492 36.492h318.479c20.122 0 36.492-16.371 36.492-36.492 0-9.163 7.427-16.587 16.587-16.587s16.587 7.425 16.587 16.587c0 13.372-3.795 25.872-10.353 36.492h206.085c20.122 0 36.492-16.371 36.492-36.492 0-9.163 7.427-16.587 16.587-16.587s16.587 7.425 16.587 16.587c0 13.372-3.795 25.872-10.353 36.492h241.472c20.122 0 36.492-16.369 36.492-36.492s-16.371-36.492-36.492-36.492z" />
<glyph unicode="&#xe90f;" glyph-name="food-2" d="M942.298 489.289c-9.026 0-16.34 7.314-16.34 16.34 0 105.601-39.916 185.272-118.64 236.808-70.523 46.167-169.884 69.575-295.317 69.575s-224.794-23.408-295.317-69.573c-78.724-51.538-118.64-131.209-118.64-236.81 0-9.026-7.316-16.34-16.34-16.34s-16.34 7.314-16.34 16.34c0 218.648 158.62 339.064 446.638 339.064s446.638-120.416 446.638-339.064c0-9.024-7.314-16.34-16.34-16.34zM235.302 666.532c-9.009 0-16.34-7.331-16.34-16.34s7.331-16.34 16.34-16.34 16.34 7.331 16.34 16.34-7.331 16.34-16.34 16.34zM772.357 650.192c0-9.009 7.331-16.34 16.34-16.34s16.34 7.331 16.34 16.34-7.331 16.34-16.34 16.34-16.34-7.331-16.34-16.34zM723.336 182.856c9.009 0 16.34-7.331 16.34-16.34s-7.331-16.34-16.34-16.34-16.34 7.331-16.34 16.34 7.331 16.34 16.34 16.34zM300.664 620.779c-9.009 0-16.34-7.331-16.34-16.34s7.331-16.34 16.34-16.34 16.34 7.331 16.34 16.34-7.331 16.34-16.34 16.34zM811.574 51.307h-599.149c-81.092 0-147.064 65.972-147.064 147.064 0 9.026 7.316 16.34 16.34 16.34s16.34-7.314 16.34-16.34c0-63.070 51.311-114.383 114.383-114.383h599.149c63.070 0 114.383 51.313 114.383 114.383 0 9.026 7.314 16.34 16.34 16.34s16.34-7.314 16.34-16.34c0-81.092-65.972-147.064-147.064-147.064zM942.298 325.885h-860.596c-45.052 0-81.702 36.65-81.702 81.702v32.681c0 45.052 36.65 81.702 81.702 81.702h860.596c45.052 0 81.702-36.65 81.702-81.702v-32.681c0-45.052-36.65-81.702-81.702-81.702zM81.702 489.289c-27.031 0-49.021-21.992-49.021-49.021v-32.681c0-27.029 21.99-49.021 49.021-49.021h860.596c27.029 0 49.021 21.992 49.021 49.021v32.681c0 27.029-21.992 49.021-49.021 49.021h-860.596zM842.432 216.949c-45.35 0-69.198 12.576-90.236 23.674-20.245 10.678-37.727 19.9-74.989 19.9-37.261 0-54.743-9.22-74.987-19.9-21.038-11.098-44.884-23.674-90.234-23.674-45.348 0-69.192 12.576-90.23 23.674-20.245 10.678-37.725 19.9-74.985 19.9s-54.74-9.22-74.985-19.9c-21.038-11.098-44.882-23.674-90.232-23.674-45.348 0-69.194 12.576-90.232 23.674-20.245 10.678-37.725 19.9-74.985 19.9-9.024 0-16.34 7.314-16.34 16.34s7.316 16.34 16.34 16.34c45.348 0 69.194-12.576 90.232-23.674 20.245-10.678 37.725-19.9 74.985-19.9s54.74 9.22 74.985 19.9c21.038 11.098 44.882 23.674 90.232 23.674 45.348 0 69.194-12.578 90.232-23.674 20.245-10.678 37.725-19.9 74.983-19.9s54.74 9.22 74.985 19.9c21.038 11.098 44.884 23.674 90.234 23.674s69.198-12.576 90.236-23.674c20.245-10.678 37.727-19.9 74.989-19.9s54.747 9.22 74.992 19.9c21.038 11.098 44.886 23.674 90.236 23.674 9.026 0 16.34-7.314 16.34-16.34s-7.314-16.34-16.34-16.34c-37.263 0-54.745-9.22-74.989-19.9-21.036-11.096-44.884-23.674-90.236-23.674z" />
<glyph unicode="&#xe910;" glyph-name="food" d="M1024 264.734c0 39.789-32.372 72.161-72.161 72.161h-19.472v47.949c9.805 5.523 20.262 9.321 37.799 9.321 9.489 0 17.181 7.693 17.181 17.181s-7.693 17.181-17.181 17.181c-15.626 0-27.735-2.419-37.799-5.981v29.428c21.282 7.189 36.653 27.33 36.653 51.008v20.613c0 37.934-9.938 74.521-28.736 105.802-36.969 61.513-91.303 99.523-130.376 120.578-78.092 42.076-178.323 63.412-297.908 63.412-119.583 0-219.814-21.337-297.906-63.417-70.789-38.145-109.971-86.623-130.376-120.578-18.801-31.281-28.738-67.866-28.738-105.8v-20.613c0-23.678 15.371-43.819 36.653-51.008v-29.442c-10.059 3.571-22.168 5.997-37.799 5.997-9.489 0-17.181-7.693-17.181-17.181s7.693-17.181 17.181-17.181c17.543 0 27.992-3.814 37.799-9.353v-47.917h-19.472c-39.789 0-72.161-32.372-72.161-72.161 0-33.868 23.46-62.347 54.98-70.076v-21.557c0-49.894 40.593-90.488 90.488-90.488h733.065c49.894 0 90.488 40.593 90.488 90.488v21.557c31.522 7.729 54.98 36.207 54.98 70.076zM898.004 449.145v-45.175c-11.319-6.985-22.141-12.096-42.481-12.096-23.637 0-34.417 6.893-48.066 15.621-15.417 9.857-32.894 21.032-66.578 21.032-33.668 0-51.134-11.175-66.544-21.037-13.637-8.726-24.406-15.617-48.020-15.617-23.586 0-34.346 6.891-47.965 15.614-15.399 9.862-32.853 21.039-66.498 21.039-33.659 0-51.12-11.177-66.526-21.037-13.63-8.726-24.397-15.617-48.002-15.617-23.596 0-34.358 6.891-47.984 15.614-15.404 9.862-32.862 21.039-66.514 21.039s-51.111-11.177-66.512-21.039c-13.626-8.723-24.388-15.614-47.984-15.614-20.26 0-31.059 5.086-42.334 12.047v45.223h772.009zM89.342 523.593c0 31.698 8.24 62.164 23.827 88.101 18.189 30.266 53.294 73.579 117.224 108.026 73.029 39.352 167.776 59.305 281.607 59.305s208.58-19.953 281.607-59.305c63.93-34.449 99.032-77.76 117.224-108.026 15.589-25.937 23.827-56.402 23.827-88.101v-20.613c0-10.737-8.735-19.472-19.472-19.472h-806.371c-10.737 0-19.472 8.735-19.472 19.472v20.613zM125.996 365.246c10.914-4.504 24.283-7.734 42.334-7.734 33.652 0 51.111 11.177 66.512 21.039 13.626 8.726 24.388 15.614 47.984 15.614s34.36-6.891 47.986-15.614c15.404-9.862 32.86-21.039 66.512-21.039 33.659 0 51.12 11.177 66.528 21.037 13.63 8.726 24.395 15.617 48 15.617 23.586 0 34.346-6.891 47.965-15.614 15.399-9.862 32.853-21.039 66.498-21.039 33.666 0 51.134 11.175 66.542 21.037 13.637 8.726 24.406 15.617 48.023 15.617 23.637 0 34.417-6.893 48.064-15.619 15.417-9.86 32.894-21.034 66.578-21.034 18.127 0 31.538 3.248 42.481 7.775v-28.393h-772.007v28.351zM878.532 116.975h-733.065c-30.947 0-56.125 25.176-56.125 56.125v19.472h845.315v-19.472c0-30.949-25.176-56.125-56.125-56.125zM951.839 226.935h-286.768c6.792 11.001 10.723 23.948 10.723 37.799 0 9.489-7.693 17.181-17.181 17.181s-17.181-7.693-17.181-17.181c0-20.842-16.957-37.799-37.799-37.799h-531.472c-20.842 0-37.799 16.957-37.799 37.799s16.957 37.799 37.799 37.799h311.553c20.842 0 37.799-16.957 37.799-37.799 0-9.489 7.693-17.181 17.181-17.181s17.181 7.693 17.181 17.181c0 13.85-3.931 26.798-10.723 37.799h506.688c20.842 0 37.799-16.957 37.799-37.799s-16.954-37.799-37.799-37.799zM438.694 577.432c4.396 0 8.794 1.677 12.148 5.033l18.327 18.327c6.71 6.71 6.71 17.589 0 24.297-6.71 6.71-17.589 6.71-24.297 0l-18.327-18.327c-6.71-6.71-6.71-17.589 0-24.297 3.354-3.356 7.752-5.033 12.148-5.033zM609.811 600.791c3.354-3.354 7.752-5.033 12.148-5.033s8.794 1.677 12.148 5.033c6.71 6.71 6.71 17.589 0 24.297l-18.327 18.327c-6.71 6.71-17.589 6.71-24.297 0-6.71-6.71-6.71-17.589 0-24.297l18.327-18.327zM237.101 559.105c4.396 0 8.794 1.677 12.148 5.033l18.327 18.327c6.71 6.71 6.71 17.589 0 24.297-6.71 6.71-17.589 6.71-24.297 0l-18.327-18.327c-6.71-6.71-6.71-17.589 0-24.297 3.354-3.356 7.752-5.033 12.148-5.033zM347.060 650.738c9.489 0 17.181 7.693 17.181 17.181v18.327c0 9.489-7.693 17.181-17.181 17.181s-17.181-7.693-17.181-17.181v-18.327c0-9.489 7.693-17.181 17.181-17.181zM548.653 522.452h18.327c9.489 0 17.181 7.693 17.181 17.181s-7.693 17.181-17.181 17.181h-18.327c-9.489 0-17.181-7.693-17.181-17.181s7.693-17.181 17.181-17.181zM713.593 540.779c4.396 0 8.794 1.677 12.148 5.033l18.327 18.327c6.71 6.71 6.71 17.589 0 24.297-6.71 6.71-17.589 6.71-24.297 0l-18.327-18.327c-6.71-6.71-6.71-17.589 0-24.297 3.356-3.356 7.752-5.033 12.148-5.033zM499.852 692.424c3.354-3.354 7.752-5.033 12.148-5.033s8.794 1.677 12.148 5.033c6.71 6.71 6.71 17.589 0 24.297l-18.327 18.327c-6.71 6.71-17.589 6.71-24.297 0-6.71-6.71-6.71-17.589 0-24.297l18.327-18.327zM353.239 527.485c3.354-3.354 7.752-5.033 12.148-5.033s8.794 1.677 12.148 5.033c6.71 6.71 6.71 17.589 0 24.297l-18.327 18.327c-6.71 6.71-17.589 6.71-24.297 0-6.71-6.71-6.71-17.589 0-24.297l18.327-18.327zM637.24 695.428c12.167-2.195 24.077-4.772 35.4-7.661 1.425-0.362 2.852-0.536 4.259-0.536 7.667 0 14.654 5.17 16.636 12.939 2.344 9.195-3.207 18.549-12.403 20.895-12.112 3.088-24.826 5.839-37.789 8.181-9.335 1.677-18.276-4.52-19.96-13.857s4.52-18.274 13.857-19.96zM742.913 663.001c59.374-27.891 89.917-63.829 105.085-89.067 6.527-10.859 10.719-23.147 12.464-36.52 1.129-8.655 8.515-14.961 17.016-14.961 0.74 0 1.489 0.048 2.243 0.147 9.408 1.228 16.040 9.851 14.815 19.259-2.36 18.091-8.11 34.839-17.085 49.777-17.623 29.325-52.737 70.908-119.927 102.471-8.591 4.030-18.819 0.341-22.856-8.247-4.034-8.591-0.344-18.824 8.245-22.858z" />
<glyph unicode="&#xe911;" glyph-name="gear" d="M1020.781 504.851c-1.619 14.394-18.402 25.211-32.915 25.211-46.92 0-88.556 27.55-106.018 70.158-17.839 43.64-6.336 94.534 28.632 126.611 11.007 10.062 12.344 26.906 3.113 38.607-24.015 30.495-51.31 58.042-81.112 81.915-11.67 9.365-28.792 8.062-38.912-3.143-30.518-33.799-85.337-46.36-127.697-28.686-44.082 18.543-71.88 63.212-69.159 111.161 0.895 15.061-10.112 28.156-25.127 29.905-38.245 4.423-76.825 4.561-115.185 0.305-14.844-1.638-25.851-14.425-25.352-29.295 1.669-47.477-26.464-91.364-70.108-109.241-41.853-17.096-96.287-4.641-126.744 28.857-10.066 11.034-26.91 12.39-38.637 3.25-30.686-24.076-58.594-51.645-82.83-81.889-9.453-11.758-8.062-28.8 3.056-38.916 35.635-32.271 47.141-83.607 28.628-127.75-17.675-42.085-61.376-69.209-111.405-69.209-16.234 0.522-27.798-10.375-29.573-25.135-4.503-38.466-4.557-77.66-0.221-116.438 1.608-14.455 18.902-25.177 33.574-25.177 44.585 1.139 87.39-26.464 105.347-70.162 17.899-43.64 6.393-94.504-28.628-126.607-10.954-10.062-12.344-26.88-3.113-38.58 23.79-30.301 51.089-57.874 80.997-81.946 11.731-9.453 28.8-8.119 38.969 3.086 30.633 33.883 85.447 46.421 127.639 28.712 44.192-18.486 71.99-63.151 69.27-111.127-0.888-15.069 10.173-28.187 25.127-29.909 19.564-2.282 39.247-3.421 58.983-3.421 18.734 0 37.472 1.029 56.205 3.113 14.848 1.638 25.847 14.425 25.348 29.322-1.718 47.45 26.464 91.338 70.051 109.184 42.135 17.21 96.34 4.614 126.801-28.849 10.123-11.011 26.849-12.341 38.641-3.231 30.629 24.018 58.48 51.565 82.83 81.893 9.449 11.731 8.115 28.8-3.059 38.912-35.635 32.271-47.199 83.615-28.686 127.727 17.404 41.525 59.482 69.407 104.741 69.407l6.332-0.164c14.68-1.193 28.187 10.116 29.966 25.1 4.511 38.5 4.564 77.66 0.229 116.438zM512.81 276.136c-94.176 0-170.78 76.604-170.78 170.78 0 94.172 76.604 170.78 170.78 170.78 94.172 0 170.777-76.608 170.777-170.78 0-94.176-76.604-170.78-170.777-170.78z" />
<glyph unicode="&#xe912;" glyph-name="interface-1" d="M43.886 733.258h936.229c24.137 0 43.886 19.749 43.886 43.886s-19.749 43.886-43.886 43.886h-936.229c-24.137 0-43.886-19.749-43.886-43.886s19.749-43.886 43.886-43.886zM43.886 404.116h936.229c24.137 0 43.886 19.749 43.886 43.886s-19.749 43.886-43.886 43.886h-936.229c-24.137 0-43.886-19.749-43.886-43.886s19.749-43.886 43.886-43.886zM43.886 74.973h936.229c24.137 0 43.886 19.749 43.886 43.886s-19.749 43.886-43.886 43.886h-936.229c-24.137 0-43.886-19.749-43.886-43.886s19.749-43.886 43.886-43.886z" />
<glyph unicode="&#xe913;" glyph-name="interface-2" d="M0 267.294h1024v120.471h-1024v-120.471zM0 26.353h1024v120.471h-1024v-120.471zM0 508.235h1024v120.471h-1024v-120.471zM0 869.647v-120.471h1024v120.471h-1024z" />
<glyph unicode="&#xe914;" glyph-name="interface-3" d="M992.896 901.701h-961.792c-16.094 0-29.133 13.039-29.133 29.166-0.033 16.061 13.007 29.133 29.133 29.133h961.792c16.094 0 29.133-13.072 29.133-29.166s-13.007-29.133-29.133-29.133zM627.63 660.259h-596.526c-16.094 0-29.166 13.039-29.166 29.166 0 16.094 13.039 29.166 29.166 29.166h596.526c16.061 0 29.133-13.072 29.133-29.166 0-16.127-13.072-29.166-29.133-29.166zM992.896 418.817h-961.792c-16.094 0-29.133 13.072-29.133 29.166s13.039 29.166 29.133 29.166h961.792c16.094 0 29.133-13.072 29.133-29.166s-13.007-29.166-29.133-29.166zM627.63 177.442h-596.526c-16.094 0-29.166 13.007-29.166 29.133s13.039 29.166 29.166 29.166h596.526c16.061 0 29.133-13.072 29.133-29.166s-13.072-29.133-29.133-29.133zM992.896-64h-961.792c-16.094 0-29.133 13.007-29.133 29.133s13.039 29.166 29.133 29.166h961.792c16.094 0 29.133-13.072 29.133-29.166s-13.007-29.133-29.133-29.133z" />
<glyph unicode="&#xe915;" glyph-name="interface-4" d="M136.533 408.615h-136.533v78.769h136.533v-78.769zM136.533 856.287h-136.533v-78.769h136.533v78.769zM136.533 118.482h-136.533v-78.769h136.533v78.769zM1024 487.385h-745.682v-78.769h745.682v78.769zM1024 856.287h-745.682v-78.769h745.682v78.769zM1024 118.482h-745.682v-78.769h745.682v78.769z" />
<glyph unicode="&#xe916;" glyph-name="interface-5" d="M282.745 791.882c0-25.218 20.633-45.851 45.851-45.851h649.551c25.218 0 45.851 20.633 45.851 45.851s-20.633 45.851-45.851 45.851h-649.551c-25.218 0-45.851-20.633-45.851-45.851zM328.596 402.151h649.551c25.218 0 45.851 20.633 45.851 45.851s-20.633 45.851-45.851 45.851h-649.551c-25.218 0-45.851-20.633-45.851-45.851s20.633-45.851 45.851-45.851zM328.596 58.27h649.551c25.218 0 45.851 20.633 45.851 45.851s-20.633 45.851-45.851 45.851h-649.551c-25.218 0-45.851-20.633-45.851-45.851s20.633-45.851 45.851-45.851zM45.851 746.031h76.417c25.218 0 45.851 20.633 45.851 45.851s-20.633 45.851-45.851 45.851h-76.417c-25.218 0-45.851-20.633-45.851-45.851s20.633-45.851 45.851-45.851zM45.851 402.151h76.417c25.218 0 45.851 20.633 45.851 45.851s-20.633 45.851-45.851 45.851h-76.417c-25.218 0-45.851-20.633-45.851-45.851s20.633-45.851 45.851-45.851zM45.851 58.27h76.417c25.218 0 45.851 20.633 45.851 45.851s-20.633 45.851-45.851 45.851h-76.417c-25.218 0-45.851-20.633-45.851-45.851s20.633-45.851 45.851-45.851z" />
<glyph unicode="&#xe917;" glyph-name="interface-6" d="M512 704c70.4 0 128 57.6 128 128s-57.6 128-128 128-128-57.6-128-128 57.6-128 128-128zM512 576c-70.4 0-128-57.6-128-128s57.6-128 128-128 128 57.6 128 128-57.6 128-128 128zM512 192c-70.4 0-128-57.6-128-128s57.6-128 128-128 128 57.6 128 128-57.6 128-128 128z" />
<glyph unicode="&#xe918;" glyph-name="interface-7" d="M146.943 594.938c-81.025 0-146.943-65.914-146.943-146.939s65.918-146.939 146.943-146.939 146.939 65.914 146.939 146.939-65.918 146.939-146.939 146.939zM146.943 366.070c-45.18 0-81.935 36.755-81.935 81.932s36.755 81.932 81.935 81.932c45.177 0 81.932-36.755 81.932-81.932s-36.758-81.932-81.932-81.932zM512.002 594.938c-81.025 0-146.939-65.914-146.939-146.939s65.914-146.939 146.939-146.939 146.939 65.914 146.939 146.939-65.918 146.939-146.939 146.939zM512.002 366.070c-45.177 0-81.932 36.755-81.932 81.932s36.755 81.932 81.932 81.932 81.932-36.755 81.932-81.932-36.758-81.932-81.932-81.932zM877.061 594.938c-81.025 0-146.939-65.914-146.939-146.939s65.914-146.939 146.939-146.939 146.943 65.914 146.943 146.939-65.922 146.939-146.943 146.939zM877.061 366.070c-45.177 0-81.932 36.755-81.932 81.932s36.755 81.932 81.932 81.932c45.18 0 81.935-36.755 81.935-81.932s-36.758-81.932-81.935-81.932z" />
<glyph unicode="&#xe919;" glyph-name="interface-8" d="M1003.162 960h-982.323c-11.506 0-20.838-9.332-20.838-20.838v-982.323c0-11.506 9.332-20.838 20.838-20.838h834.993c11.506 0 20.838 9.332 20.838 20.838s-9.332 20.838-20.838 20.838h-814.155v940.647h940.647v-961.485c0-11.506 9.332-20.838 20.838-20.838s20.838 9.332 20.838 20.838v982.323c0 11.506-9.332 20.838-20.838 20.838zM228.579 743.209c-44.049 0-79.88-35.831-79.88-79.88s35.831-79.88 79.88-79.88 79.88 35.831 79.88 79.88-35.831 79.88-79.88 79.88zM228.579 625.125c-21.064 0-38.204 17.139-38.204 38.204s17.139 38.204 38.204 38.204 38.204-17.139 38.204-38.204-17.136-38.204-38.204-38.204zM857.2 684.167h-486.227c-11.506 0-20.838-9.332-20.838-20.838s9.332-20.838 20.838-20.838h486.227c11.506 0 20.838 9.332 20.838 20.838s-9.329 20.838-20.838 20.838zM228.579 527.88c-11.506 0-20.838-9.332-20.838-20.838s9.332-20.838 20.838-20.838c21.064 0 38.204-17.139 38.204-38.204s-17.139-38.204-38.204-38.204-38.204 17.139-38.204 38.204c0 11.506-9.332 20.838-20.838 20.838s-20.838-9.332-20.838-20.838c0-44.049 35.831-79.88 79.88-79.88s79.88 35.831 79.88 79.88-35.831 79.88-79.88 79.88zM857.2 468.838h-486.227c-11.506 0-20.838-9.332-20.838-20.838s9.332-20.838 20.838-20.838h486.227c11.506 0 20.838 9.332 20.838 20.838s-9.329 20.838-20.838 20.838zM228.579 312.551c-44.049 0-79.88-35.831-79.88-79.88s35.831-79.88 79.88-79.88 79.88 35.831 79.88 79.88-35.831 79.88-79.88 79.88zM228.579 194.468c-21.064 0-38.204 17.139-38.204 38.204s17.139 38.204 38.204 38.204 38.204-17.139 38.204-38.204-17.136-38.204-38.204-38.204zM857.2 253.509h-486.227c-11.506 0-20.838-9.332-20.838-20.838s9.332-20.838 20.838-20.838h486.227c11.506 0 20.838 9.332 20.838 20.838s-9.329 20.838-20.838 20.838z" />
<glyph unicode="&#xe91a;" glyph-name="interface-9" d="M123.584 677.518h776.831c68.243 0 123.586 55.327 123.586 123.584 0 68.261-55.343 123.584-123.586 123.584h-776.831c-68.239 0.002-123.584-55.321-123.584-123.583 0-68.258 55.345-123.586 123.584-123.586zM123.584 864.379c34.968 0 63.275-28.327 63.275-63.275s-28.31-63.275-63.275-63.275c-34.963 0-63.275 28.327-63.275 63.275-0.004 34.952 28.312 63.275 63.275 63.275zM900.416 571.586h-776.831c-68.239 0-123.584-55.323-123.584-123.584 0-68.256 55.345-123.584 123.584-123.584h776.831c68.243 0 123.586 55.327 123.586 123.584-0.004 68.261-55.349 123.584-123.586 123.584zM123.584 384.73c-34.963 0-63.275 28.327-63.275 63.271 0 34.948 28.312 63.275 63.275 63.275 34.968 0 63.275-28.327 63.275-63.275 0-34.946-28.31-63.271-63.275-63.271zM900.416 218.484h-776.831c-68.239 0-123.584-55.327-123.584-123.588 0-68.256 55.345-123.584 123.584-123.584h776.831c68.243 0 123.586 55.325 123.586 123.584-0.004 68.263-55.349 123.588-123.586 123.588zM123.584 31.627c-34.963 0-63.275 28.329-63.275 63.273 0 34.95 28.312 63.277 63.275 63.277 34.968 0 63.275-28.327 63.275-63.277 0-34.948-28.31-63.273-63.275-63.273z" />
<glyph unicode="&#xe91b;" glyph-name="interface-10" d="M0 106.667h341.333v113.778h-341.333v-113.778zM0 789.333v-113.778h1024v113.778h-1024zM0 391.111h682.667v113.778h-682.667v-113.778z" />
<glyph unicode="&#xe91c;" glyph-name="interface-11" d="M218.824 781.819h-188.707c-16.635 0-30.117 13.491-30.117 30.117s13.482 30.117 30.117 30.117h188.707c16.635 0 30.117-13.491 30.117-30.117s-13.482-30.117-30.117-30.117zM326.66 673.993c-76.069 0-137.953 61.883-137.953 137.946 0 76.078 61.883 137.962 137.953 137.962s137.953-61.883 137.953-137.962c0-76.065-61.883-137.946-137.953-137.946zM326.66 889.663c-42.855 0-77.718-34.87-77.718-77.725s34.863-77.709 77.718-77.709 77.718 34.854 77.718 77.709-34.863 77.725-77.718 77.725zM993.883 781.819h-450.135c-16.635 0-30.117 13.491-30.117 30.117s13.482 30.117 30.117 30.117h450.132c16.635 0 30.117-13.491 30.117-30.117s-13.48-30.117-30.115-30.117zM731.035 310.054c-76.072 0-137.953 61.883-137.953 137.946s61.883 137.946 137.953 137.946 137.953-61.883 137.953-137.946-61.881-137.946-137.953-137.946zM731.035 525.709c-42.855 0-77.718-34.854-77.718-77.709s34.863-77.709 77.718-77.709 77.718 34.854 77.718 77.709-34.863 77.709-77.718 77.709zM513.954 417.883h-483.836c-16.635 0-30.117 13.491-30.117 30.117s13.482 30.117 30.117 30.117h483.836c16.635 0 30.117-13.491 30.117-30.117s-13.482-30.117-30.117-30.117zM993.883 417.883h-155.012c-16.635 0-30.117 13.491-30.117 30.117s13.482 30.117 30.117 30.117h155.012c16.635 0 30.117-13.491 30.117-30.117s-13.482-30.117-30.117-30.117zM292.965-53.898c-76.069 0-137.953 61.883-137.953 137.962 0 76.063 61.883 137.946 137.953 137.946s137.953-61.883 137.953-137.946c0-76.078-61.883-137.962-137.953-137.962zM292.965 161.773c-42.855 0-77.718-34.854-77.718-77.709s34.863-77.725 77.718-77.725 77.718 34.87 77.718 77.725-34.863 77.709-77.718 77.709zM993.883 53.944h-483.836c-16.635 0-30.117 13.491-30.117 30.117s13.482 30.117 30.117 30.117h483.836c16.635 0 30.117-13.491 30.117-30.117s-13.482-30.117-30.117-30.117zM185.129 53.944h-155.012c-16.635 0-30.117 13.491-30.117 30.12 0 16.626 13.482 30.117 30.117 30.117h155.012c16.635 0 30.117-13.491 30.117-30.117 0-16.629-13.482-30.12-30.117-30.12z" />
<glyph unicode="&#xe91d;" glyph-name="interface-12" d="M32.821 773.706h171.695c14.559-55.34 65.011-96.274 124.854-96.274s110.294 40.934 124.854 96.274h536.957c18.126 0 32.821 14.695 32.821 32.821s-14.695 32.821-32.821 32.821h-536.961c-14.559 55.34-65.011 96.274-124.854 96.274s-110.294-40.934-124.854-96.274h-171.691c-18.126 0-32.821-14.695-32.821-32.821s14.695-32.821 32.821-32.821zM329.369 869.98c34.987 0 63.453-28.466 63.453-63.453s-28.466-63.453-63.453-63.453c-34.987 0-63.453 28.466-63.453 63.453s28.466 63.453 63.453 63.453zM991.179 480.821h-218.76c-14.559 55.34-65.011 96.274-124.854 96.274s-110.294-40.934-124.854-96.274h-489.892c-18.126 0-32.821-14.695-32.821-32.821s14.695-32.821 32.821-32.821h489.896c14.559-55.335 65.011-96.274 124.854-96.274s110.294 40.938 124.854 96.274h218.76c18.126 0 32.821 14.695 32.821 32.821s-14.699 32.821-32.825 32.821zM647.571 384.547c-34.987 0-63.453 28.466-63.453 63.453s28.466 63.453 63.453 63.453c34.987 0 63.453-28.466 63.453-63.453s-28.466-63.453-63.453-63.453zM991.179 122.294h-536.961c-14.559 55.335-65.011 96.274-124.854 96.274s-110.294-40.938-124.854-96.274h-171.691c-18.126 0-32.821-14.695-32.821-32.821s14.695-32.821 32.821-32.821h171.695c14.559-55.34 65.011-96.274 124.854-96.274s110.294 40.934 124.854 96.274h536.957c18.126 0 32.821 14.695 32.821 32.821s-14.695 32.821-32.821 32.821zM329.369 26.020c-34.987 0-63.453 28.466-63.453 63.453s28.466 63.453 63.453 63.453c34.987 0 63.453-28.466 63.453-63.453s-28.466-63.453-63.453-63.453z" />
<glyph unicode="&#xe91e;" glyph-name="interface" d="M0 823.026h1024v-87.787h-1024v87.787zM0 494.58h1024v-87.787h-1024v87.787zM0 160.794h1024v-87.82h-1024v87.82z" />
<glyph unicode="&#xe91f;" glyph-name="line-1" d="M997.642 196.020h-971.284c-14.576 0-26.358-11.808-26.358-26.358s11.782-26.358 26.358-26.358h971.284c14.576 0 26.358 11.808 26.358 26.358s-11.782 26.358-26.358 26.358zM997.642 474.358h-971.284c-14.576 0-26.358-11.808-26.358-26.358s11.782-26.358 26.358-26.358h971.284c14.576 0 26.358 11.808 26.358 26.358s-11.782 26.358-26.358 26.358zM26.358 699.954h971.284c14.576 0 26.358 11.808 26.358 26.358s-11.782 26.358-26.358 26.358h-971.284c-14.576 0-26.358-11.808-26.358-26.358s11.782-26.358 26.358-26.358z" />
<glyph unicode="&#xe920;" glyph-name="line-2" d="M787.692 388.922h-551.385c-31.509 0-59.076 27.571-59.076 59.076 0 31.509 27.571 59.076 59.076 59.076h551.385c31.509 0 59.076-27.571 59.076-59.076s-27.567-59.076-59.076-59.076zM964.924 743.386h-905.848c-31.505 0-59.076 27.567-59.076 59.076s27.571 59.076 59.076 59.076h905.844c31.509 0 59.076-27.571 59.076-59.076s-27.567-59.076-59.072-59.076zM964.924 34.462h-905.848c-31.505 0-59.076 27.567-59.076 59.076s27.571 59.076 59.076 59.076h905.844c31.509 0 59.076-27.571 59.076-59.076s-27.567-59.076-59.072-59.076z" />
<glyph unicode="&#xe921;" glyph-name="line-3" d="M964.924 388.922h-551.385c-31.509 0-59.076 27.571-59.076 59.076 0 31.509 27.571 59.076 59.076 59.076h551.385c31.509 0 59.076-27.571 59.076-59.076s-27.571-59.076-59.076-59.076zM964.924 743.386h-905.848c-31.505 0-59.076 27.567-59.076 59.076s27.571 59.076 59.076 59.076h905.844c31.509 0 59.076-27.571 59.076-59.076s-27.567-59.076-59.072-59.076zM964.924 34.462h-905.848c-31.505 0-59.076 27.567-59.076 59.076s27.571 59.076 59.076 59.076h905.844c31.509 0 59.076-27.571 59.076-59.076s-27.567-59.076-59.072-59.076z" />
<glyph unicode="&#xe922;" glyph-name="line" d="M371.852 960h280.294v-280.292h-280.294v280.292zM371.852 588.146h280.294v-280.292h-280.294v280.292zM371.852 216.292h280.294v-280.292h-280.294v280.292z" />
<glyph unicode="&#xe923;" glyph-name="market" d="M64.766 411.332c-2.567 8.401 2.167 17.366 10.566 19.931 8.399 2.567 17.366-2.167 19.933-10.565l104.935-340.699h623.601l105 340.734c2.565 8.401 11.535 13.135 19.933 10.566 8.401-2.567 13.135-11.537 10.566-19.935l-108.134-350.834c-1.635-7.166-8-12.532-15.634-12.532l-647.099 0.067c-6.833 0-13.166 4.401-15.233 11.266l-108.434 352zM253.234 599.165c-4.901-7.3-14.801-9.266-22.135-4.367-7.3 4.901-9.266 14.799-4.365 22.133l74.7 111.934c4.901 7.3 14.833 9.266 22.135 4.367 7.3-4.901 9.266-14.801 4.365-22.135l-74.7-111.932zM48.034 464.033c-8.833 0-16.001 7.166-16.001 16.001s7.166 16.001 16.001 16.001h927.965c8.833 0 16.001-7.166 16.001-16.001s-7.166-16.001-16.001-16.001h-927.965zM16.001 528.066c-8.833 0-16.001 7.166-16.001 16.001s7.166 16.001 16.001 16.001h992c8.833 0 16.001-7.166 16.001-16.001s-7.166-16.001-16.001-16.001h-992zM797.301 616.9c4.901-7.3 2.933-17.234-4.365-22.135-7.299-4.899-17.236-2.967-22.135 4.367l-74.702 111.966c-4.902 7.3-2.933 17.234 4.365 22.135 7.299 4.899 17.234 2.967 22.135-4.367l74.702-111.966zM464.034 399.999h95.967c8.831 0 15.999-7.166 15.999-15.999v-224.069c0-8.831-7.166-15.999-15.999-15.999h-95.967c-8.833 0-16.001 7.166-16.001 15.999v224.069c0 8.799 7.166 15.999 16.001 15.999v0zM544 367.966h-63.967v-192.035h63.967v192.035zM656.135 399.999h127.935c8.831 0 15.999-7.166 15.999-15.999 0-1.933-0.333-3.8-0.967-5.535l-63.699-222.901c-1.998-7.034-8.401-11.602-15.368-11.602v-0.035h-63.933c-8.833 0-16.001 7.166-16.001 16.001v224.072c0 8.799 7.2 15.999 16.034 15.999v0zM762.9 367.966h-90.766v-192.035h35.899l54.868 192.035zM239.966 399.999h127.967c8.833 0 16.001-7.166 16.001-15.999v-224.069c0-8.831-7.166-15.999-16.001-15.999h-63.967c-7.633 0-14.067 5.403-15.633 12.634l-63.734 223.066c-2.399 8.5 2.5 17.331 11 19.732 1.467 0.435 2.933 0.601 4.367 0.601v0.033zM351.9 367.966h-90.768l54.868-192.035h35.9v192.035zM368.068 847.999c13.267 0 25.3-5.401 33.933-14.033 8.667-8.667 14.033-20.669 14.033-33.933 0-13.267-5.368-25.3-14.033-33.966s-20.667-14.033-33.933-14.033c-13.267 0-25.3 5.399-33.934 14.033-8.667 8.667-14.033 20.667-14.033 33.933s5.401 25.267 14.033 33.933c8.666 8.666 20.666 14.067 33.934 14.067v0zM379.367 811.333c-2.866 2.866-6.867 4.667-11.299 4.667-4.434 0-8.435-1.8-11.301-4.667s-4.667-6.867-4.667-11.299c0-4.434 1.8-8.435 4.667-11.299 2.866-2.866 6.867-4.667 11.301-4.667 4.432 0 8.433 1.8 11.299 4.667s4.667 6.867 4.667 11.299c0 4.399-1.8 8.399-4.667 11.299zM655.967 847.999c13.267 0 25.299-5.401 33.933-14.033 8.667-8.667 14.033-20.669 14.033-33.933 0-13.267-5.366-25.3-14.033-33.934-8.669-8.667-20.669-14.033-33.933-14.033-13.268 0-25.269 5.399-33.934 14.033-8.667 8.667-14.033 20.667-14.033 33.934s5.401 25.267 14.033 33.933c8.634 8.632 20.666 14.033 33.934 14.033v0zM667.266 811.333c-2.866 2.866-6.867 4.667-11.299 4.667-4.434 0-8.435-1.8-11.301-4.667s-4.667-6.867-4.667-11.299c0-4.434 1.8-8.435 4.667-11.299 2.866-2.866 6.867-4.667 11.301-4.667 4.432 0 8.433 1.8 11.299 4.667 2.868 2.866 4.667 6.867 4.667 11.299 0 4.399-1.799 8.399-4.667 11.299z" />
<glyph unicode="&#xe924;" glyph-name="paper" d="M20.946 336.289h982.11c0.128-0.018 0.293 0 0.361 0 10.31 0 18.62 8.346 18.62 18.62 0 3.78-1.111 7.307-3.055 10.218l-227.092 555.366c-2.872 6.999-9.671 11.579-17.235 11.579h-525.301c-7.563 0-14.353-4.583-17.244-11.579l-228.403-558.549c-2.344-5.727-1.681-12.269 1.783-17.435 3.446-5.13 9.253-8.22 15.455-8.22zM261.846 894.838h500.3l213.166-521.312h-926.647l213.181 521.312zM18.617 243.199h986.765c10.29 0 18.617 8.346 18.617 18.617s-8.328 18.617-18.617 18.617h-986.765c-10.298 0-18.617-8.346-18.617-18.617s8.319-18.617 18.617-18.617zM297.892 783.128h409.602c10.29 0 18.617 8.346 18.617 18.617s-8.328 18.617-18.617 18.617h-409.602c-10.298 0-18.617-8.346-18.617-18.617s8.316-18.617 18.617-18.617zM260.654 690.036h484.074c10.29 0 18.617 8.346 18.617 18.617s-8.328 18.617-18.617 18.617h-484.074c-10.301 0-18.617-8.346-18.617-18.617s8.319-18.617 18.617-18.617zM781.966 634.181h-558.546c-10.301 0-18.617-8.346-18.617-18.617s8.319-18.617 18.617-18.617h558.546c10.29 0 18.617 8.346 18.617 18.617s-8.328 18.617-18.617 18.617zM18.617 150.11h986.765c10.29 0 18.617 8.346 18.617 18.617s-8.328 18.617-18.617 18.617h-986.765c-10.298 0-18.617-8.346-18.617-18.617s8.319-18.617 18.617-18.617zM18.617 57.017h986.765c10.29 0 18.617 8.346 18.617 18.617s-8.328 18.617-18.617 18.617h-986.765c-10.298 0-18.617-8.346-18.617-18.617s8.319-18.617 18.617-18.617zM18.617-36.073h986.765c10.29 0 18.617 8.346 18.617 18.614 0 10.275-8.328 18.62-18.617 18.62h-986.765c-10.298 0-18.617-8.346-18.617-18.62 0-10.269 8.319-18.614 18.617-18.614z" />
<glyph unicode="&#xe925;" glyph-name="shapes-1" d="M115.718 960c-61.275 0-111.124-49.849-111.124-111.12 0-11.506 9.332-20.838 20.838-20.838s20.838 9.332 20.838 20.838c0 38.29 31.153 69.444 69.447 69.444s69.447-31.153 69.447-69.444-31.153-69.447-69.447-69.447c-11.506 0-20.838-9.332-20.838-20.838s9.332-20.838 20.838-20.838c61.275 0 111.124 49.852 111.124 111.124s-49.852 111.12-111.124 111.12zM512 960c-61.275 0-111.124-49.849-111.124-111.12s49.852-111.124 111.124-111.124 111.124 49.852 111.124 111.124-49.852 111.12-111.124 111.12zM512 779.433c-38.294 0-69.447 31.153-69.447 69.447 0 38.29 31.153 69.444 69.447 69.444s69.447-31.153 69.447-69.444c0-38.294-31.153-69.447-69.447-69.447zM908.282 737.756c61.275 0 111.124 49.852 111.124 111.124s-49.849 111.12-111.124 111.12-111.124-49.849-111.124-111.12 49.849-111.124 111.124-111.124zM908.282 918.323c38.29 0 69.447-31.153 69.447-69.444 0-38.294-31.153-69.447-69.447-69.447s-69.447 31.153-69.447 69.447c0 38.29 31.153 69.444 69.447 69.444zM115.718 559.124c-61.275 0-111.124-49.852-111.124-111.124s49.849-111.124 111.124-111.124 111.124 49.852 111.124 111.124-49.852 111.124-111.124 111.124zM115.718 378.553c-38.29 0-69.447 31.153-69.447 69.447s31.153 69.447 69.447 69.447c38.294 0 69.447-31.153 69.447-69.447s-31.153-69.447-69.447-69.447zM602.285 468.838c-11.506 0-20.838-9.332-20.838-20.838 0-38.29-31.153-69.447-69.447-69.447s-69.447 31.157-69.447 69.447 31.153 69.447 69.447 69.447c11.506 0 20.838 9.332 20.838 20.838s-9.332 20.838-20.838 20.838c-61.275 0-111.124-49.852-111.124-111.124s49.852-111.124 111.124-111.124 111.124 49.852 111.124 111.124c0 11.51-9.332 20.838-20.838 20.838zM908.282 559.124c-61.275 0-111.124-49.852-111.124-111.124s49.852-111.124 111.124-111.124 111.124 49.852 111.124 111.124-49.849 111.124-111.124 111.124zM908.282 378.553c-38.294 0-69.447 31.153-69.447 69.447s31.153 69.447 69.447 69.447c38.29 0 69.447-31.153 69.447-69.447s-31.157-69.447-69.447-69.447zM115.718 158.244c-61.275 0-111.124-49.852-111.124-111.124s49.849-111.12 111.124-111.12 111.124 49.849 111.124 111.12-49.852 111.124-111.124 111.124zM115.718-22.323c-38.29 0-69.447 31.153-69.447 69.444 0 38.294 31.153 69.447 69.447 69.447s69.447-31.153 69.447-69.447c0-38.29-31.153-69.444-69.447-69.444zM512 158.244c-61.275 0-111.124-49.852-111.124-111.124s49.852-111.12 111.124-111.12 111.124 49.849 111.124 111.12-49.852 111.124-111.124 111.124zM512-22.323c-38.294 0-69.447 31.153-69.447 69.444 0 38.294 31.153 69.447 69.447 69.447s69.447-31.153 69.447-69.447c0-38.29-31.153-69.444-69.447-69.444zM908.282 158.244c-61.275 0-111.124-49.852-111.124-111.124s49.852-111.12 111.124-111.12 111.124 49.849 111.124 111.12-49.849 111.124-111.124 111.124zM908.282-22.323c-38.294 0-69.447 31.153-69.447 69.444 0 38.294 31.153 69.447 69.447 69.447 38.29 0 69.447-31.153 69.447-69.447 0-38.29-31.157-69.444-69.447-69.444z" />
<glyph unicode="&#xe926;" glyph-name="shapes-2" d="M0 885.878h26.256v-210.051h-26.256v210.051zM52.514 807.109h26.256v-131.282h-26.256v131.282zM105.026 807.109h26.256v-131.282h-26.256v131.282zM170.667 807.109h26.256v-131.282h-26.256v131.282zM236.307 807.109h26.256v-131.282h-26.256v131.282zM301.949 885.878h26.256v-210.051h-26.256v210.051zM380.718 807.109h26.256v-131.282h-26.256v131.282zM459.488 807.109h26.256v-131.282h-26.256v131.282zM551.386 807.109h26.256v-131.282h-26.256v131.282zM656.411 807.109h26.256v-131.282h-26.256v131.282zM761.437 885.878h26.256v-210.051h-26.256v210.051zM879.591 807.109h26.256v-131.282h-26.256v131.282zM997.744 807.109h26.256v-131.282h-26.256v131.282zM292.681 475.069l-223.192-223.179c-2.468-2.455-3.847-5.803-3.847-9.281s1.378-6.813 3.847-9.281l223.192-223.206 18.562 18.562-213.911 213.925 213.913 213.896-18.564 18.564zM731.308 475.070l-18.564-18.564 213.925-213.896-213.925-213.925 18.564-18.564 223.206 223.208c2.468 2.455 3.847 5.789 3.847 9.281s-1.378 6.826-3.847 9.281l-223.206 223.179z" />
<glyph unicode="&#xe927;" glyph-name="shapes-3" d="M1024 374.857h-438.857v-438.857h-146.286v438.857h-438.857v146.286h438.857v438.857h146.286v-438.857h438.857v-146.286z" />
<glyph unicode="&#xe928;" glyph-name="shapes" d="M113.834 391.083h796.331v113.834h-796.331v-113.834zM0 163.543h796.457v113.834h-796.457v-113.834zM227.541 732.459v-113.834h796.457v113.834h-796.457z" />
<glyph unicode="&#xe929;" glyph-name="social" d="M215.598 696.528h615.908v-26.792h-615.908v26.792zM215.598 548.82h615.908v-26.848h-615.908v26.848zM0 954.967v-711.536h197.674l-0.071-302.393 303.063 302.393h523.334v711.536h-1024zM224.41 5.674l0.036 264.6h-197.634v657.917h970.376v-657.917h-507.609l-265.169-264.6z" />
<glyph unicode="&#xe92a;" glyph-name="square" d="M0.025 960v-1024h1023.944v1024h-1023.944zM990.475-30.444h-956.95v956.944h956.944c0.005 0 0.005-956.944 0.005-956.944zM203.239 341.005c59.021 0 107.021 48.005 107.021 107.005 0 59.036-48.005 107.005-107.021 107.005s-107.021-47.969-107.021-107.005c0-59.001 48-107.005 107.021-107.005zM203.239 521.516c40.514 0 73.506-32.972 73.506-73.506 0-40.514-32.972-73.506-73.506-73.506s-73.506 32.972-73.506 73.506c0 40.534 32.972 73.506 73.506 73.506zM529.395 341.005c59.036 0 107.056 48.005 107.056 107.005 0 59.036-48.020 107.005-107.056 107.005-58.98 0-107.005-47.969-107.005-107.005 0-59.001 48.020-107.005 107.005-107.005zM529.395 521.516c40.514 0 73.506-32.972 73.506-73.506 0-40.514-32.972-73.506-73.506-73.506-40.514 0-73.485 32.972-73.485 73.506s32.972 73.506 73.485 73.506zM834.195 341.005c59.001 0 107.005 48.005 107.005 107.005 0 59.036-48.005 107.005-107.005 107.005-59.036 0-107.041-47.969-107.041-107.005 0-59.001 48-107.005 107.041-107.005zM834.195 521.516c40.514 0 73.506-32.972 73.506-73.506 0-40.514-32.972-73.506-73.506-73.506s-73.506 32.992-73.506 73.506c0 40.534 32.972 73.506 73.506 73.506z" />
<glyph unicode="&#xe92b;" glyph-name="squares" d="M0 548.011h357.535v357.52h-357.535v-357.52zM318.868 866.879v-280.216h-280.216v280.216h280.216zM581.905 901.22h442.095v-38.652h-442.095v38.652zM581.905 601.784h442.095v-38.617h-442.095v38.617zM0-9.531h357.535v357.464h-357.535v-357.464zM318.868 309.301v-280.18h-280.216v280.18h280.216zM581.905 343.678h442.095v-38.667h-442.095v38.667zM581.905 44.242h442.095v-38.597h-442.095v38.597z" />
<glyph unicode="&#xe92c;" glyph-name="three-1" d="M924.903 910.452h-825.806c-54.503 0-99.097-44.594-99.097-99.097s44.594-99.097 99.097-99.097h825.806c54.503 0 99.097 44.594 99.097 99.097s-44.594 99.097-99.097 99.097zM924.903 547.097h-825.806c-54.503 0-99.097-44.594-99.097-99.097s44.594-99.097 99.097-99.097h825.806c54.503 0 99.097 44.594 99.097 99.097s-44.594 99.097-99.097 99.097zM924.903 183.742h-825.806c-54.503 0-99.097-44.594-99.097-99.097s44.594-99.097 99.097-99.097h825.806c54.503 0 99.097 44.594 99.097 99.097s-44.594 99.097-99.097 99.097z" />
<glyph unicode="&#xe92d;" glyph-name="three-2" d="M93.090 541.090c-51.416 0-93.090-41.673-93.090-93.090s41.674-93.090 93.090-93.090 93.092 41.673 93.092 93.090c0 51.418-41.674 93.090-93.092 93.090zM527.516 541.090c-51.418 0-93.090-41.674-93.090-93.090s41.674-93.090 93.090-93.090c51.416 0 93.090 41.671 93.090 93.090s-41.673 93.090-93.090 93.090zM930.91 541.090c-51.418 0-93.090-41.674-93.090-93.090s41.673-93.090 93.090-93.090c51.416 0 93.090 41.673 93.090 93.090s-41.674 93.090-93.090 93.090z" />
<glyph unicode="&#xe92e;" glyph-name="three" d="M990.919 940.697h-957.828c-18.245 0-33.092-14.847-33.092-33.092v-147.081c0-18.245 14.847-33.092 33.092-33.092h957.817c18.234 0 33.092 14.847 33.092 33.092v147.081c0.011 18.245-14.836 33.092-33.081 33.092zM990.919 554.627h-957.828c-18.245 0-33.092-14.847-33.092-33.092v-147.081c0-18.245 14.847-33.092 33.092-33.092h957.817c18.234 0 33.092 14.847 33.092 33.092v147.081c0.011 18.245-14.836 33.092-33.081 33.092zM990.919 168.557h-957.828c-18.245 0-33.092-14.847-33.092-33.092v-147.081c0-18.245 14.847-33.092 33.092-33.092h957.817c18.234 0 33.092 14.847 33.092 33.092v147.081c0.011 18.256-14.836 33.092-33.081 33.092z" />
<glyph unicode="&#xe92f;" glyph-name="tool-1" d="M597.323 347.968c13.939 23.379 24.315 48.347 30.967 74.507h27.594c28.761 0 52.16 23.399 52.16 52.16v35.513c0 28.761-23.399 52.16-52.16 52.16h-27.594c-6.652 26.16-17.029 51.128-30.967 74.507l19.588 19.588c20.336 20.336 20.336 53.427-0.002 73.765l-25.11 25.11c-9.85 9.85-22.95 15.277-36.883 15.277s-27.032-5.427-36.883-15.277l-19.586-19.588c-23.379 13.939-48.347 24.318-74.507 30.967v27.596c0 28.761-23.399 52.16-52.16 52.16h-35.513c-28.761 0-52.16-23.399-52.16-52.16v-27.594c-26.16-6.652-51.128-17.029-74.504-30.967l-19.588 19.588c-9.85 9.85-22.95 15.277-36.883 15.277s-27.032-5.427-36.883-15.277l-25.114-25.112c-20.336-20.338-20.336-53.43 0-73.765l19.588-19.588c-13.939-23.379-24.315-48.347-30.967-74.507h-27.596c-28.761 0-52.16-23.399-52.16-52.16v-35.513c0-28.761 23.399-52.16 52.16-52.16h27.596c6.652-26.16 17.029-51.128 30.967-74.507l-19.588-19.588c-20.336-20.338-20.336-53.427 0-73.765l25.11-25.112c20.34-20.338 53.427-20.336 73.768 0l19.586 19.586c23.377-13.939 48.345-24.315 74.504-30.967v-27.594c0-28.761 23.399-52.16 52.16-52.16h35.513c28.761 0 52.16 23.399 52.16 52.16v27.594c26.16 6.652 51.128 17.029 74.507 30.967l19.586-19.588c20.338-20.338 53.43-20.34 73.763 0l25.114 25.112c20.336 20.338 20.336 53.427 0 73.765l-19.583 19.59zM593.37 278.158l-25.114-25.112c-7.353-7.353-19.326-7.353-26.679 0l-28.974 28.974c-5.6 5.596-14.363 6.479-20.962 2.109-26.919-17.825-56.41-30.080-87.66-36.423-7.757-1.574-13.335-8.397-13.335-16.314v-40.862c0-10.403-8.463-18.866-18.866-18.866h-35.513c-10.403 0-18.866 8.463-18.866 18.866v40.862c0 7.917-5.578 14.74-13.335 16.314-31.249 6.344-60.741 18.598-87.658 36.423-2.808 1.86-6.004 2.768-9.185 2.768-4.299 0-8.561-1.66-11.779-4.876l-28.972-28.972c-7.36-7.356-19.33-7.356-26.681 0l-25.11 25.112c-7.356 7.356-7.356 19.326 0 26.681l28.974 28.974c5.596 5.598 6.479 14.363 2.106 20.962-17.823 26.917-30.080 56.41-36.423 87.658-1.574 7.76-8.394 13.335-16.314 13.335h-40.862c-10.403 0-18.866 8.463-18.866 18.866v35.513c0 10.403 8.463 18.866 18.866 18.866h40.862c7.917 0 14.74 5.576 16.314 13.335 6.344 31.249 18.6 60.741 36.423 87.66 4.373 6.599 3.489 15.364-2.106 20.962l-28.974 28.974c-7.356 7.356-7.356 19.326 0 26.681l25.11 25.11c3.562 3.562 8.299 5.527 13.34 5.527s9.777-1.962 13.342-5.527l28.974-28.974c5.598-5.596 14.367-6.481 20.962-2.109 26.917 17.823 56.408 30.077 87.658 36.423 7.757 1.574 13.335 8.397 13.335 16.314v40.862c0 10.403 8.463 18.866 18.866 18.866h35.513c10.403 0 18.866-8.463 18.866-18.866v-40.862c0-7.917 5.578-14.74 13.335-16.314 31.249-6.344 60.741-18.598 87.66-36.423 6.601-4.37 15.366-3.487 20.962 2.109l28.974 28.972c3.562 3.562 8.299 5.527 13.34 5.527s9.775-1.962 13.342-5.527l25.11-25.11c7.356-7.356 7.356-19.326 0-26.681l-28.974-28.974c-5.596-5.598-6.479-14.363-2.106-20.962 17.823-26.919 30.080-56.413 36.421-87.66 1.576-7.76 8.397-13.335 16.316-13.335h40.86c10.403 0 18.866-8.463 18.866-18.866v-35.513c0-10.403-8.463-18.866-18.866-18.866h-40.86c-7.917 0-14.74-5.576-16.316-13.335-6.341-31.249-18.598-60.741-36.421-87.658-4.373-6.601-3.489-15.364 2.106-20.962l28.974-28.974c7.356-7.356 7.356-19.326 0.002-26.681zM402.682 664.366c11.211-3.165 22.162-7.464 32.554-12.776 2.426-1.241 5.014-1.829 7.564-1.829 6.053 0 11.89 3.314 14.836 9.071 4.186 8.186 0.943 18.216-7.245 22.4-12.341 6.308-25.348 11.415-38.663 15.173-8.849 2.497-18.043-2.648-20.544-11.497-2.499-8.845 2.65-18.043 11.497-20.542zM158.913 511.526c1.017-0.186 2.026-0.277 3.025-0.277 7.877 0 14.88 5.618 16.354 13.641 2.661 14.492 7.131 28.628 13.282 42.021 3.84 8.354 0.18 18.238-8.175 22.076-8.352 3.838-18.24 0.178-22.076-8.175-7.309-15.905-12.618-32.697-15.779-49.907-1.66-9.043 4.324-17.719 13.368-19.379zM321.505 316.666c-72.367 13.297-129.918 70.853-143.209 143.22-1.662 9.043-10.352 15.029-19.379 13.364-9.043-1.66-15.029-10.337-13.366-19.379 15.772-85.873 84.066-154.172 169.939-169.95 1.017-0.186 2.029-0.277 3.027-0.277 7.877 0 14.878 5.616 16.354 13.641 1.658 9.043-4.324 17.719-13.366 19.381zM508.142 637.92c-6.317 6.685-16.853 6.985-23.534 0.67-6.683-6.312-6.983-16.849-0.67-23.532 31.442-33.289 48.76-76.853 48.76-122.667 0-16.562-2.264-32.963-6.723-48.744-2.501-8.847 2.641-18.047 11.491-20.549 1.514-0.428 3.036-0.633 4.537-0.633 7.26 0 13.937 4.79 16.010 12.121 5.296 18.729 7.982 38.177 7.982 57.802-0.002 54.353-20.547 106.036-57.851 145.531zM997.929 226.824l-8.683 5.012c1.929 9.93 2.903 19.883 2.903 29.72s-0.972 19.792-2.903 29.72l8.683 5.012c24.908 14.381 33.471 46.345 19.093 71.253-14.383 24.908-46.345 33.476-71.253 19.091l-8.652-4.994c-15.113 13.029-32.59 23.095-51.507 29.662v10.066c0 28.761-23.399 52.16-52.16 52.16s-52.16-23.399-52.16-52.16v-10.066c-18.917-6.568-36.394-16.633-51.507-29.662l-8.65 4.994c-12.066 6.967-26.122 8.818-39.579 5.212s-24.708-12.237-31.673-24.302c-14.381-24.908-5.815-56.87 19.093-71.253l8.681-5.012c-1.929-9.935-2.903-19.885-2.903-29.72s0.972-19.787 2.903-29.72l-8.681-5.012c-24.908-14.381-33.471-46.342-19.093-71.253 14.381-24.91 46.345-33.469 71.253-19.093l8.65 4.994c15.113-13.029 32.59-23.092 51.507-29.662v-10.066c0-28.761 23.399-52.16 52.16-52.16s52.16 23.399 52.16 52.16v10.066c18.917 6.568 36.394 16.633 51.507 29.662l8.652-4.994c24.904-14.378 56.87-5.815 71.253 19.093 14.381 24.91 5.815 56.872-19.093 71.253zM988.189 172.22c-5.205-9.009-16.767-12.103-25.771-6.907l-19.335 11.162c-6.572 3.795-14.882 2.661-20.2-2.752-15.892-16.181-35.975-27.745-58.077-33.445-7.353-1.896-12.49-8.525-12.49-16.119v-22.413c0-10.403-8.463-18.866-18.866-18.866s-18.866 8.463-18.866 18.866v22.413c0 7.593-5.136 14.223-12.49 16.119-22.103 5.7-42.185 17.264-58.077 33.445-3.216 3.274-7.524 4.983-11.884 4.983-2.848 0-5.718-0.73-8.317-2.231l-19.332-11.162c-9.009-5.205-20.573-2.1-25.771 6.905-5.2 9.011-2.102 20.573 6.905 25.774l19.386 11.193c6.57 3.793 9.746 11.548 7.72 18.86-3.103 11.213-4.679 22.489-4.679 33.513s1.576 22.298 4.679 33.513c2.026 7.311-1.15 15.066-7.72 18.86l-19.386 11.193c-9.009 5.203-12.106 16.764-6.905 25.774 2.521 4.364 6.588 7.487 11.455 8.79 4.865 1.305 9.95 0.637 14.316-1.884l19.332-11.162c6.577-3.798 14.882-2.661 20.2 2.752 15.892 16.181 35.975 27.745 58.077 33.445 7.353 1.896 12.49 8.525 12.49 16.119v22.413c0 10.403 8.463 18.866 18.866 18.866s18.866-8.463 18.866-18.866v-22.413c0-7.593 5.136-14.223 12.49-16.119 22.103-5.7 42.185-17.264 58.077-33.445 5.318-5.414 13.626-6.55 20.2-2.752l19.335 11.162c9.007 5.2 20.569 2.104 25.771-6.905 5.2-9.009 2.102-20.571-6.905-25.771l-19.388-11.193c-6.57-3.793-9.746-11.551-7.72-18.862 3.105-11.204 4.679-22.48 4.679-33.511s-1.574-22.304-4.679-33.511c-2.026-7.311 1.15-15.069 7.72-18.862l19.388-11.193c9.007-5.205 12.106-16.767 6.905-25.774zM833.45 331.472c-38.552 0-69.917-31.365-69.917-69.917s31.365-69.917 69.917-69.917 69.917 31.365 69.917 69.917-31.365 69.917-69.917 69.917zM833.45 224.933c-20.194 0-36.623 16.429-36.623 36.623s16.429 36.623 36.623 36.623 36.623-16.429 36.623-36.623-16.429-36.623-36.623-36.623zM354.022 633.334c-77.716 0-140.943-63.227-140.943-140.943s63.227-140.943 140.943-140.943 140.943 63.227 140.943 140.943-63.227 140.943-140.943 140.943zM354.022 384.742c-59.358 0-107.649 48.291-107.649 107.649s48.291 107.649 107.649 107.649 107.649-48.291 107.649-107.649-48.291-107.649-107.649-107.649z" />
<glyph unicode="&#xe930;" glyph-name="tool-2" d="M834.046 258.564c-8.134 8.141-21.335 8.141-29.465 0-8.141-8.137-8.141-21.331 0-29.465l40.506-40.509c9.7-9.7 15.045-22.599 15.045-36.317 0-13.722-5.345-26.621-15.045-36.324l-1.031-1.031c-9.704-9.7-22.602-15.042-36.324-15.042-13.718 0-26.617 5.342-36.321 15.045l-40.506 40.502c-7.019 7.016-18.011 8.113-26.28 2.608-37.804-25.166-79.449-42.433-123.785-51.321-9.735-1.952-16.74-10.499-16.74-20.432v-57.232c0-28.326-23.044-51.369-51.366-51.369h-1.459c-28.323 0-51.366 23.044-51.366 51.369v57.232c0 9.929-7.005 18.48-16.743 20.432-44.337 8.891-85.982 26.155-123.785 51.321-8.266 5.501-19.261 4.411-26.284-2.608l-40.506-40.506c-9.7-9.7-22.602-15.042-36.321-15.042-13.722 0-26.621 5.342-36.321 15.042l-1.031 1.031c-9.7 9.704-15.045 22.602-15.045 36.324 0 13.718 5.345 26.617 15.045 36.321l40.506 40.506c7.019 7.019 8.113 18.018 2.612 26.28-25.169 37.804-42.437 79.452-51.328 123.785-1.952 9.735-10.502 16.74-20.432 16.74h-57.228c-28.323 0-51.366 23.044-51.366 51.363v1.462c0 28.323 23.044 51.366 51.366 51.366h57.232c9.929 0 18.48 7.005 20.432 16.74 8.894 44.34 26.162 85.985 51.328 123.785 5.501 8.266 4.411 19.265-2.612 26.284l-40.509 40.502c-9.7 9.704-15.045 22.602-15.045 36.324s5.345 26.621 15.045 36.324l1.031 1.031c9.7 9.7 22.599 15.045 36.321 15.045 13.718 0 26.621-5.345 36.321-15.049l40.506-40.502c8.141-8.134 21.335-8.137 29.469 0.003 8.137 8.137 8.137 21.331 0 29.469l-40.502 40.499c-17.573 17.577-40.94 27.256-65.789 27.256-24.853 0-48.219-9.679-65.789-27.256l-1.031-1.031c-17.573-17.573-27.253-40.937-27.253-65.789s9.679-48.219 27.253-65.793l28.701-28.698c-20.272-33.518-35.213-69.544-44.566-107.466h-40.541c-51.303 0-93.042-41.739-93.042-93.042v-1.462c0-51.3 41.739-93.039 93.042-93.039h40.537c9.349-37.922 24.287-73.941 44.566-107.466l-28.698-28.701c-17.577-17.573-27.253-40.937-27.253-65.789s9.679-48.219 27.253-65.789l1.031-1.031c17.573-17.577 40.937-27.253 65.789-27.253s48.216 9.676 65.789 27.249l28.701 28.701c33.525-20.276 69.544-35.213 107.469-44.562v-40.537c0-51.303 41.739-93.046 93.042-93.046h1.459c51.303 0 93.042 41.742 93.042 93.046v40.537c37.925 9.349 73.944 24.287 107.466 44.562l28.701-28.698c17.573-17.577 40.937-27.253 65.789-27.253s48.219 9.676 65.789 27.253l1.031 1.031c17.577 17.573 27.256 40.937 27.256 65.789s-9.679 48.219-27.256 65.786l-40.506 40.502zM930.954 541.772h-40.541c-9.349 37.925-24.29 73.948-44.562 107.466l28.701 28.701c36.279 36.276 36.279 95.303 0 131.582l-1.031 1.031c-17.573 17.577-40.937 27.256-65.789 27.256s-48.219-9.679-65.786-27.253l-28.705-28.705c-33.522 20.276-69.544 35.213-107.466 44.562v40.541c-0.003 51.303-41.739 93.046-93.046 93.046h-1.459c-51.303 0-93.042-41.742-93.042-93.046v-57.232c0-11.506 9.332-20.838 20.838-20.838 11.51 0 20.838 9.332 20.838 20.838v57.232c0 28.326 23.044 51.369 51.366 51.369h1.459c28.323 0 51.366-23.044 51.366-51.369v-57.232c0-9.926 7.009-18.476 16.74-20.432 44.337-8.894 85.982-26.159 123.785-51.324 8.259-5.494 19.258-4.411 26.28 2.612l40.509 40.506c9.7 9.7 22.599 15.045 36.317 15.045 13.722 0 26.621-5.345 36.324-15.045l1.031-1.031c9.7-9.704 15.045-22.602 15.045-36.324s-5.345-26.621-15.045-36.321l-40.506-40.502c-7.019-7.019-8.116-18.018-2.612-26.284 25.162-37.797 42.433-79.442 51.324-123.785 1.955-9.735 10.502-16.74 20.432-16.74h57.232c28.323 0 51.366-23.044 51.366-51.366v-1.462c0-28.319-23.044-51.363-51.366-51.363h-57.232c-11.506 0-20.838-9.332-20.838-20.838s9.332-20.838 20.838-20.838h57.232c51.303 0 93.042 41.739 93.042 93.039v1.462c0 51.307-41.739 93.042-93.042 93.042zM512 369.503c-18.202 0-35.279 6.043-49.386 17.48-8.936 7.238-22.061 5.873-29.309-3.067-7.245-8.94-5.873-22.064 3.067-29.309 21.304-17.271 48.164-26.78 75.629-26.78 66.262 0 120.174 53.908 120.174 120.177 0 66.262-53.908 120.174-120.174 120.174s-120.174-53.908-120.174-120.174c0-11.506 9.332-20.838 20.838-20.838s20.838 9.332 20.838 20.838c0 43.284 35.213 78.497 78.497 78.497s78.497-35.213 78.497-78.497-35.213-78.501-78.497-78.501z" />
<glyph unicode="&#xe931;" glyph-name="tool" d="M1018.090 746.058c-5.862 8.401-15.294 13.594-25.54 14.031l-635.197 27.38c-18.225 0.797-33.455-13.273-34.234-31.413-0.775-18.133 13.273-33.455 31.411-34.234l592.193-25.528-116.438-363.294h-518.161l-93.613 509.719c-2.058 11.171-9.728 20.491-20.306 24.641l-153.323 60.234c-16.898 6.616-35.966-1.684-42.603-18.562-6.625-16.887 1.673-35.966 18.562-42.603l136.328-53.557 95.266-518.665c2.871-15.592 16.46-26.917 32.32-26.917h15.803l-36.086-100.234c-3.020-8.396-1.776-17.721 3.364-25.015 5.133-7.296 13.481-11.637 22.393-11.637h25.311c-15.684-17.455-25.311-40.437-25.311-65.711 0-54.352 44.225-98.565 98.565-98.565s98.565 44.214 98.565 98.565c0 25.272-9.627 48.256-25.308 65.711h214.898c-15.69-17.455-25.315-40.437-25.315-65.711 0-54.352 44.214-98.565 98.565-98.565 54.354 0 98.565 44.214 98.565 98.565 0 25.272-9.625 48.256-25.304 65.711h30.781c15.124 0 27.38 12.258 27.38 27.378 0 15.124-12.258 27.38-27.38 27.38h-525.056l29.566 82.137h495.488c14.288 0 26.931 9.23 31.282 22.824l136.897 427.121c3.144 9.748 1.531 20.407-4.331 28.812zM388.799 20.878c-24.16 0-43.808 19.646-43.808 43.806s19.648 43.808 43.808 43.808 43.806-19.648 43.806-43.808-19.646-43.806-43.806-43.806zM750.202 20.878c-24.16 0-43.806 19.646-43.806 43.806s19.646 43.808 43.806 43.808 43.806-19.648 43.806-43.808-19.646-43.806-43.806-43.806z" />
</font>
</defs>
</svg>
